# Apple ModelIO OBJ File: board
mtllib board.mtl
g 
v 82 -0.251134 82
v -2 -0.251134 82
v -2 -1.5 82
v 82 -1.5 82
v -1.79899 0 81.799
v 81.799 0 81.799
v 80 0 80
v 0 0 80
v -1.79899 0 81.799
v 0 0 80
v 0 0 0
v -1.79899 0 -1.79899
v 0 0 80
v 80 0 80
v 80 0 0
v 0 0 0
v 80 0 80
v 81.799 0 81.799
v 81.799 0 -1.79899
v 80 0 0
v 0 0 0
v 80 0 0
v 81.799 0 -1.79899
v -1.79899 0 -1.79899
v -2 -1.5 -2
v -2 -0.251134 -2
v 82 -0.251134 -2
v 82 -1.5 -2
v -2 -1.5 82
v -2 -1.5 -2
v 82 -1.5 -2
v 82 -1.5 82
v 82 -0.251134 82
v 82 -1.5 82
v 82 -1.5 -2
v 82 -0.251134 -2
v -2 -0.251134 82
v -2 -0.251134 -2
v -2 -1.5 -2
v -2 -1.5 82
v -1.92949 -0.094531 81.9295
v -1.92949 -0.094531 -1.92949
v -2 -0.251134 -2
v -2 -0.251134 82
v 82 -0.251134 -2
v -2 -0.251134 -2
v -1.92949 -0.094531 -1.92949
v 81.9295 -0.094531 -1.92949
v 81.9295 -0.094531 81.9295
v 82 -0.251134 82
v 82 -0.251134 -2
v 81.9295 -0.094531 -1.92949
v -1.92949 -0.094531 81.9295
v -2 -0.251134 82
v 82 -0.251134 82
v 81.9295 -0.094531 81.9295
v 81.799 0 81.799
v 81.9295 -0.094531 81.9295
v 81.9295 -0.094531 -1.92949
v 81.799 0 -1.79899
v -1.79899 0 -1.79899
v 81.799 0 -1.79899
v 81.9295 -0.094531 -1.92949
v -1.92949 -0.094531 -1.92949
v -1.92949 -0.094531 81.9295
v -1.79899 0 81.799
v -1.79899 0 -1.79899
v -1.92949 -0.094531 -1.92949
v -1.92949 -0.094531 81.9295
v 81.9295 -0.094531 81.9295
v 81.799 0 81.799
v -1.79899 0 81.799
vn 0 0 0.999805
vn 0 0 0.999805
vn 0 0 0.999805
vn 0 0 0.999805
vn 0 0.999811 0
vn 0 0.999853 0
vn 0 0.999811 0
vn 0 0.999769 0
vn 0 0.999815 0
vn 0 0.999773 0
vn 0 0.999815 0
vn 0 0.999857 0
vn 0 1.00008 0
vn 0 1.00008 0
vn 0 1.00008 0
vn 0 1.00008 0
vn 0 0.999811 0
vn 0 0.999853 0
vn 0 0.999811 0
vn 0 0.999769 0
vn 0 0.999815 0
vn 0 0.999773 0
vn 0 0.999815 0
vn 0 0.999857 0
vn 0 0 -0.999805
vn 0 0 -0.999805
vn 0 0 -0.999805
vn 0 0 -0.999805
vn 0 -1.00015 0
vn 0 -1.00015 0
vn 0 -1.00015 0
vn 0 -1.00015 0
vn 0.999805 0 0
vn 0.999805 0 0
vn 0.999805 0 0
vn 0.999805 0 0
vn -0.999805 0 0
vn -0.999805 0 0
vn -0.999805 0 0
vn -0.999805 0 0
vn -0.912048 0.41063 0
vn -0.911984 0.410601 0
vn -0.912048 0.41063 0
vn -0.911667 0.410458 0
vn 0 0.410629 -0.912048
vn 0 0.410458 -0.911667
vn 0 0.410629 -0.912048
vn 0 0.410601 -0.911984
vn 0.912048 0.410607 0
vn 0.911667 0.410436 0
vn 0.912048 0.410607 0
vn 0.911984 0.410578 0
vn 0 0.410607 0.912048
vn 0 0.410436 0.911667
vn 0 0.410607 0.912048
vn 0 0.410578 0.911984
vn 0.586447 0.809689 0
vn 0.586681 0.810013 0
vn 0.586447 0.809689 0
vn 0.586498 0.80976 0
vn 0 0.809704 -0.586507
vn 0 0.809692 -0.586498
vn 0 0.809704 -0.586507
vn 0 0.809715 -0.586516
vn -0.586507 0.809704 0
vn -0.586498 0.809692 0
vn -0.586507 0.809704 0
vn -0.586516 0.809716 0
vn 0 0.809689 0.586447
vn 0 0.810013 0.586681
vn 0 0.809689 0.586447
vn 0 0.80976 0.586498
vt 1 -0 
vt 0 -0 
vt 0 -0 
vt 1 -0 
vt 0.002393 0.002393 
vt 0.997607 0.002393 
vt 0.976191 0.023809 
vt 0.02381 0.023809 
vt 0.002393 0.002393 
vt 0.02381 0.023809 
vt 0.02381 0.97619 
vt 0.002393 0.997607 
vt 0.02381 0.023809 
vt 0.976191 0.023809 
vt 0.976191 0.97619 
vt 0.02381 0.97619 
vt 0.976191 0.023809 
vt 0.997607 0.002393 
vt 0.997607 0.997607 
vt 0.976191 0.97619 
vt 0.02381 0.97619 
vt 0.976191 0.97619 
vt 0.997607 0.997607 
vt 0.002393 0.997607 
vt 0 1 
vt 0 1 
vt 1 1 
vt 1 1 
vt 0 -0 
vt 0 1 
vt 1 1 
vt 1 -0 
vt 1 -0 
vt 1 -0 
vt 1 1 
vt 1 1 
vt 0 -0 
vt 0 1 
vt 0 1 
vt 0 -0 
vt 0.000839 0.000839 
vt 0.000839 0.999161 
vt 0 1 
vt 0 -0 
vt 1 1 
vt 0 1 
vt 0.000839 0.999161 
vt 0.999161 0.999161 
vt 0.999161 0.000839 
vt 1 -0 
vt 1 1 
vt 0.999161 0.999161 
vt 0.000839 0.000839 
vt 0 -0 
vt 1 -0 
vt 0.999161 0.000839 
vt 0.997607 0.002393 
vt 0.999161 0.000839 
vt 0.999161 0.999161 
vt 0.997607 0.997607 
vt 0.002393 0.997607 
vt 0.997607 0.997607 
vt 0.999161 0.999161 
vt 0.000839 0.999161 
vt 0.000839 0.000839 
vt 0.002393 0.002393 
vt 0.002393 0.997607 
vt 0.000839 0.999161 
vt 0.000839 0.000839 
vt 0.999161 0.000839 
vt 0.997607 0.002393 
vt 0.002393 0.002393 
usemtl material_1
f 1/1/1 2/2/2 3/3/3
f 1/1/1 3/3/3 4/4/4
f 5/5/5 6/6/6 7/7/7
f 5/5/5 7/7/7 8/8/8
f 9/9/9 10/10/10 11/11/11
f 9/9/9 11/11/11 12/12/12
f 13/13/13 14/14/14 15/15/15
f 13/13/13 15/15/15 16/16/16
f 17/17/17 18/18/18 19/19/19
f 17/17/17 19/19/19 20/20/20
f 21/21/21 22/22/22 23/23/23
f 21/21/21 23/23/23 24/24/24
f 25/25/25 26/26/26 27/27/27
f 25/25/25 27/27/27 28/28/28
f 29/29/29 30/30/30 31/31/31
f 29/29/29 31/31/31 32/32/32
f 33/33/33 34/34/34 35/35/35
f 33/33/33 35/35/35 36/36/36
f 37/37/37 38/38/38 39/39/39
f 37/37/37 39/39/39 40/40/40
f 41/41/41 42/42/42 43/43/43
f 41/41/41 43/43/43 44/44/44
f 45/45/45 46/46/46 47/47/47
f 45/45/45 47/47/47 48/48/48
f 49/49/49 50/50/50 51/51/51
f 49/49/49 51/51/51 52/52/52
f 53/53/53 54/54/54 55/55/55
f 53/53/53 55/55/55 56/56/56
f 57/57/57 58/58/58 59/59/59
f 57/57/57 59/59/59 60/60/60
f 61/61/61 62/62/62 63/63/63
f 61/61/61 63/63/63 64/64/64
f 65/65/65 66/66/66 67/67/67
f 65/65/65 67/67/67 68/68/68
f 69/69/69 70/70/70 71/71/71
f 69/69/69 71/71/71 72/72/72
s off
